<?xml version="1.0" encoding="utf-8"?>
<!-- Generator: Adobe Illustrator 26.1.0, SVG Export Plug-In . SVG Version: 6.00 Build 0)  -->
<svg version="1.1" id="Layer_1" xmlns="http://www.w3.org/2000/svg" xmlns:xlink="http://www.w3.org/1999/xlink" x="0px" y="0px"
	 viewBox="0 0 54 54" style="enable-background:new 0 0 54 54;" xml:space="preserve">
<style type="text/css">
	.st0{opacity:0;fill:none;stroke:#F37021;stroke-linecap:round;stroke-linejoin:round;stroke-miterlimit:2;}
	.st1{fill:#D2E4F3;stroke:#0092D2;stroke-miterlimit:10;}
	.st2{fill:none;stroke:#0092D2;stroke-miterlimit:10;}
	.st3{fill:#AECFF0;stroke:#0092D2;stroke-miterlimit:10;}
	.st4{fill:#FFFFFF;stroke:#0092D2;stroke-miterlimit:10;}
	.st5{fill:none;stroke:#0092D2;stroke-linecap:round;stroke-miterlimit:10;}
</style>
<rect class="st0" width="54" height="54"/>
<g>
	<path class="st1" d="M52.7,26.8h-4.9c-0.1,0-0.2-0.1-0.2-0.1l-3.3-7.5l0,0c-2-2.8-3.5-3.7-5.9-3.7H15.7c-2.4,0-3.9,0.8-5.9,3.7l0,0
		l-3.3,7.5c0,0.1-0.1,0.1-0.2,0.1h-5c-0.8,0-2.2,4,2.7,4.3c0.2,0,0.4,0.2,0.2,0.4l-1.6,4v0.1c0,4,0,8.7,0.1,12.7
		c0,0.1,0.1,0.2,0.2,0.2H51c0.1,0,0.2-0.1,0.2-0.2c0-3.9,0-8.7,0-12.7v-0.1l-1.7-4c-0.1-0.1,0-0.4,0.2-0.4
		C55,30.8,53.4,26.8,52.7,26.8z M9.6,29.1c-0.2,0-0.4-0.2-0.2-0.4c1-2.3,1.9-4.6,3.3-7.1c0.7-1.3,1.6-2.4,3-2.5h22.7
		c1.4,0.1,2.3,1.3,3,2.5c1.3,2.5,2.3,4.8,3.3,7.1c0.1,0.1,0,0.4-0.2,0.4H9.6z"/>
</g>
<path class="st2" d="M31.7,29.1c0-2.5,2-4.5,4.5-4.5s4.5,1.9,4.5,4.5H31.7z"/>
<path class="st3" d="M4.6,48.5c0,1.1,0,2.3,0,3.4c0,0.8,0.7,1.6,1.6,1.6h5.1c0.8,0,1.4-0.7,1.4-1.6v-3.4h28.5v3.4
	c0,0.8,0.7,1.6,1.6,1.6H48c0.8,0,1.4-0.7,1.4-1.6c0-1.1,0-2.3,0-3.4H4.6z"/>
<path class="st4" d="M12.8,43.5l-6.1-1.1c-0.7,0-1.3-0.6-1.3-1.3v-2c0-0.7,0.6-1.3,1.3-1.3h6.1c0.7,0,1.3,0.6,1.3,1.3v3.1
	C14.1,43,13.5,43.5,12.8,43.5z"/>
<path class="st4" d="M41.4,43.5l6.1-1.1c0.7,0,1.3-0.6,1.3-1.3v-2c0-0.7-0.6-1.3-1.3-1.3h-6.1c-0.7,0-1.3,0.6-1.3,1.3v3.1
	C40.2,43,40.8,43.5,41.4,43.5z"/>
<line class="st5" x1="19.8" y1="42.5" x2="35.4" y2="42.5"/>
<line class="st5" x1="19.8" y1="38.8" x2="35.4" y2="38.8"/>
</svg>
